<svg xmlns="http://www.w3.org/2000/svg" xmlns:xlink="http://www.w3.org/1999/xlink" width="5760" zoomAndPan="magnify" viewBox="0 0 4320 2879.999992" height="3840" preserveAspectRatio="xMidYMid meet" version="1.0"><defs><clipPath id="735617c3f9"><path d="M -279.097656 2633.957031 L 4646.144531 -650.773438 L 5045.632812 -51.765625 L 120.390625 3232.960938 Z M -279.097656 2633.957031 " clip-rule="nonzero"/></clipPath><clipPath id="b9a9145baf"><path d="M -212.515625 2733.789062 L 4712.726562 -550.9375 L 4979.050781 -151.597656 L 53.808594 3133.128906 Z M -212.515625 2733.789062 " clip-rule="nonzero"/></clipPath><clipPath id="b9fedd1f70"><path d="M -179.226562 2783.707031 L 4746.015625 -501.019531 L 4945.761719 -201.515625 L 20.519531 3083.210938 Z M -179.226562 2783.707031 " clip-rule="nonzero"/></clipPath></defs><rect x="-432" width="5184" fill="#ffffff" y="-287.999999" height="3455.999991" fill-opacity="1"/><rect x="-432" width="5184" fill="#ffffff" y="-287.999999" height="3455.999991" fill-opacity="1"/><path stroke-linecap="butt" transform="matrix(0.624038, -0.416025, 0.416025, 0.624038, -0.832183, 2878.751468)" fill="none" stroke-linejoin="miter" d="M -0.00019018 2.000604 L 6922.658342 2.00042 " stroke="#000000" stroke-width="4" stroke-opacity="1" stroke-miterlimit="4"/><path fill="#000000" d="M 0 1080 L 4320 1080 L 4320 1800 L 0 1800 Z M 0 1080 " fill-opacity="1" fill-rule="nonzero"/><g clip-path="url(#735617c3f9)"><path fill="#000000" d="M -279.097656 2633.957031 L 4646.332031 -650.894531 L 5045.820312 -51.890625 L 120.390625 3232.960938 Z M -279.097656 2633.957031 " fill-opacity="1" fill-rule="nonzero"/></g><path fill="#ffffff" d="M 0 1200 L 4320 1200 L 4320 1680 L 0 1680 Z M 0 1200 " fill-opacity="1" fill-rule="nonzero"/><g clip-path="url(#b9a9145baf)"><path fill="#ffffff" d="M -212.515625 2733.789062 L 4712.132812 -550.542969 L 4978.457031 -151.203125 L 53.808594 3133.128906 Z M -212.515625 2733.789062 " fill-opacity="1" fill-rule="nonzero"/></g><path fill="#000000" d="M 0 1260 L 4320 1260 L 4320 1620 L 0 1620 Z M 0 1260 " fill-opacity="1" fill-rule="nonzero"/><g clip-path="url(#b9fedd1f70)"><path fill="#000000" d="M -179.226562 2783.707031 L 4746.203125 -501.144531 L 4945.945312 -201.640625 L 20.519531 3083.210938 Z M -179.226562 2783.707031 " fill-opacity="1" fill-rule="nonzero"/></g></svg>